<svg width="444" height="385" viewBox="0 0 444 385" fill="none" xmlns="http://www.w3.org/2000/svg">
<path d="M144 345C144 367.091 126.091 385 104 385H65V231C65 208.909 82.9086 191 105 191H144V345ZM434 137C439.523 137 444.024 141.48 443.774 146.997C442.456 176.152 435.378 204.899 422.839 231.905C408.868 261.994 388.391 289.333 362.576 312.362C336.761 335.391 306.114 353.659 272.386 366.122C241.74 377.446 209.094 383.777 175.998 384.84C170.478 385.017 166 380.523 166 375V289.404C166 283.881 170.481 279.434 175.995 279.125C193.539 278.143 210.805 274.581 227.088 268.564C246.455 261.408 264.053 250.918 278.876 237.694C293.699 224.471 305.457 208.773 313.479 191.496C320.07 177.303 324.033 162.272 325.237 146.99C325.671 141.485 330.107 137 335.63 137H434ZM292 119C292 185.274 238.274 239 172 239H161V43C161 20.9086 178.909 3 201 3H292V119ZM106 122C128.091 122 146 139.909 146 162V177H40C17.9086 177 -9.65645e-07 159.091 0 137V122H106ZM106 73C128.091 73 146 90.9086 146 113V114H76C53.9086 114 36 96.0914 36 74V73H106ZM228 38C208.67 38 193 53.67 193 73C193 92.33 208.67 108 228 108C247.33 108 263 92.33 263 73C263 53.67 247.33 38 228 38ZM418.84 0C427.888 0.000351949 432.284 11.0601 425.704 17.2715L382.645 57.9199L332.757 103.643C326.343 109.521 316 104.971 316 96.2705V10C316 4.47715 320.477 2.67266e-06 326 0H418.84ZM113 31C131.225 31 146 45.7746 146 64H88C69.7746 64 55 49.2254 55 31H113Z" fill="url(#paint0_linear_4155_71)"/>
<path d="M144 345C144 367.091 126.091 385 104 385H65V231C65 208.909 82.9086 191 105 191H144V345ZM434 137C439.523 137 444.024 141.48 443.774 146.997C442.456 176.152 435.378 204.899 422.839 231.905C408.868 261.994 388.391 289.333 362.576 312.362C336.761 335.391 306.114 353.659 272.386 366.122C241.74 377.446 209.094 383.777 175.998 384.84C170.478 385.017 166 380.523 166 375V289.404C166 283.881 170.481 279.434 175.995 279.125C193.539 278.143 210.805 274.581 227.088 268.564C246.455 261.408 264.053 250.918 278.876 237.694C293.699 224.471 305.457 208.773 313.479 191.496C320.07 177.303 324.033 162.272 325.237 146.99C325.671 141.485 330.107 137 335.63 137H434ZM292 119C292 185.274 238.274 239 172 239H161V43C161 20.9086 178.909 3 201 3H292V119ZM106 122C128.091 122 146 139.909 146 162V177H40C17.9086 177 -9.65645e-07 159.091 0 137V122H106ZM106 73C128.091 73 146 90.9086 146 113V114H76C53.9086 114 36 96.0914 36 74V73H106ZM228 38C208.67 38 193 53.67 193 73C193 92.33 208.67 108 228 108C247.33 108 263 92.33 263 73C263 53.67 247.33 38 228 38ZM418.84 0C427.888 0.000351949 432.284 11.0601 425.704 17.2715L382.645 57.9199L332.757 103.643C326.343 109.521 316 104.971 316 96.2705V10C316 4.47715 320.477 2.67266e-06 326 0H418.84ZM113 31C131.225 31 146 45.7746 146 64H88C69.7746 64 55 49.2254 55 31H113Z" fill="url(#paint1_linear_4155_71)"/>
<defs>
<linearGradient id="paint0_linear_4155_71" x1="221.892" y1="0" x2="221.892" y2="385" gradientUnits="userSpaceOnUse">
<stop stop-color="#004466"/>
<stop offset="1" stop-color="#000435"/>
</linearGradient>
<linearGradient id="paint1_linear_4155_71" x1="221.892" y1="0" x2="221.892" y2="385" gradientUnits="userSpaceOnUse">
<stop stop-color="#E4B55D"/>
<stop offset="0.331731" stop-color="#755468"/>
<stop offset="0.677885" stop-color="#004466"/>
<stop offset="1" stop-color="#000435"/>
</linearGradient>
</defs>
</svg>
